<?xml version="1.0" encoding="UTF-8" standalone="no"?>
<svg
   width="152"
   height="162"
   viewBox="0 0 152 162"
   fill="none"
   version="1.1"
   id="svg9"
   sodipodi:docname="Head.svg"
   inkscape:version="1.4 (86a8ad7, 2024-10-11)"
   xmlns:inkscape="http://www.inkscape.org/namespaces/inkscape"
   xmlns:sodipodi="http://sodipodi.sourceforge.net/DTD/sodipodi-0.dtd"
   xmlns="http://www.w3.org/2000/svg"
   xmlns:svg="http://www.w3.org/2000/svg">
  <defs
     id="defs9" />
  <sodipodi:namedview
     id="namedview9"
     pagecolor="#ffffff"
     bordercolor="#000000"
     borderopacity="0.25"
     inkscape:showpageshadow="2"
     inkscape:pageopacity="0.0"
     inkscape:pagecheckerboard="0"
     inkscape:deskcolor="#d1d1d1"
     inkscape:zoom="2"
     inkscape:cx="-16"
     inkscape:cy="94.25"
     inkscape:window-width="1920"
     inkscape:window-height="991"
     inkscape:window-x="-9"
     inkscape:window-y="-9"
     inkscape:window-maximized="1"
     inkscape:current-layer="svg9" />
  <path
     d="m 5,83.998834 c 0,0 14.301,-1.4068 25.5,-1.5 8.3941,-0.0699 13.0737,1.0715 19.5,1.5 15,1 15.5,21.000016 0,20.000016 -15.5,-1.0001 -45,0 -45,0 M 131,83.998834 c 0,0 -5.905,-1.3407 -16.5,-1.5 -8.689,-0.1306 -21.5159,0.8241 -28.5,1.5 -15.5,1.5 -17.5,21.000016 0,20.000016 17.5,-1 45,0 45,0"
     stroke="#000000"
     stroke-width="10"
     stroke-linecap="round"
     id="path1" />
  <path
     d="m 5,83.998834 c 0,-53 28,-65.00002 63,-65.000001 35,2e-5 63,25.000001 63,65.000001"
     stroke="#000000"
     stroke-width="10"
     stroke-linecap="round"
     id="path2" />
  <path
     d="m 131,103.99885 c 2,40.99998 -28,52.99998 -63,52.99998 -35,0 -63,-29 -63,-52.99999"
     stroke="#000000"
     stroke-width="10"
     stroke-linecap="round"
     id="path3" />
  <path
     d="m 85,125.99884 c -5,11.49999 -23,11.99999 -32,0"
     stroke="#000000"
     stroke-width="10"
     stroke-linecap="round"
     id="path4" />
  <circle
     cx="37.5"
     cy="92.498833"
     r="5.5"
     fill="#000000"
     id="circle4" />
  <circle
     cx="31.5"
     cy="91.498833"
     r="4.5"
     fill="#000000"
     id="circle5" />
  <ellipse
     cx="35"
     cy="97.498833"
     rx="6"
     ry="3.5"
     fill="#000000"
     id="ellipse5" />
  <circle
     cx="29.5"
     cy="95.498833"
     r="2.5"
     fill="#000000"
     id="circle6" />
  <circle
     cx="-95"
     cy="-92.998833"
     r="5"
     transform="scale(-1)"
     fill="#000000"
     id="circle7" />
  <circle
     cx="-101.5"
     cy="-94.498833"
     r="4.5"
     transform="scale(-1)"
     fill="#000000"
     id="circle8" />
  <ellipse
     cx="-97"
     cy="-97.998833"
     rx="4"
     ry="3"
     transform="scale(-1)"
     fill="#000000"
     id="ellipse8" />
  <ellipse
     cx="-98"
     cy="-88.498833"
     rx="6"
     ry="3.5"
     transform="scale(-1)"
     fill="#000000"
     id="ellipse9" />
  <circle
     cx="-103.5"
     cy="-90.498833"
     r="2.5"
     transform="scale(-1)"
     fill="#000000"
     id="circle9" />
</svg>
