<?xml version="1.0" encoding="UTF-8" standalone="no"?>
<svg
   width="233"
   height="510"
   viewBox="0 0 233 510"
   fill="none"
   version="1.1"
   id="svg10"
   sodipodi:docname="Ghost Girl.svg"
   inkscape:version="1.4 (86a8ad7, 2024-10-11)"
   xmlns:inkscape="http://www.inkscape.org/namespaces/inkscape"
   xmlns:sodipodi="http://sodipodi.sourceforge.net/DTD/sodipodi-0.dtd"
   xmlns="http://www.w3.org/2000/svg"
   xmlns:svg="http://www.w3.org/2000/svg">
  <defs
     id="defs10" />
  <sodipodi:namedview
     id="namedview10"
     pagecolor="#ffffff"
     bordercolor="#000000"
     borderopacity="0.25"
     inkscape:showpageshadow="2"
     inkscape:pageopacity="0.0"
     inkscape:pagecheckerboard="0"
     inkscape:deskcolor="#d1d1d1"
     inkscape:zoom="141.05639"
     inkscape:cx="145.88846"
     inkscape:cy="1.336345"
     inkscape:window-width="1920"
     inkscape:window-height="991"
     inkscape:window-x="-9"
     inkscape:window-y="-9"
     inkscape:window-maximized="1"
     inkscape:current-layer="layer1" />
  <g
     inkscape:groupmode="layer"
     id="layer1"
     inkscape:label="Layer 1"
     transform="translate(55.212613,-0.56399499)">
    <path
       id="path2"
       style="display:inline;fill:none;stroke:#000000;stroke-width:10;stroke-linecap:round;stroke-linejoin:round;stroke-dasharray:none;stroke-opacity:1"
       inkscape:label="Forehead - Right"
       d="m 127.73209,63.212249 c 2.1598,6.39152 3.3563,13.342706 3.3563,20.785154" />
    <path
       id="path8"
       style="display:inline;fill:none;stroke:#000000;stroke-width:10;stroke-linecap:round;stroke-linejoin:round;stroke-dasharray:none;stroke-opacity:1"
       inkscape:label="Forehead - Left"
       d="m 5.0883883,83.997403 c 0,-54.011387 34.1079527,-72.290351 67.6312757,-65.753896"
       sodipodi:nodetypes="cc" />
    <path
       d="m 131.08839,103.9974 c 2,41 -28,53 -63.000002,53 -35,0 -62.9999997,-29 -62.9999997,-53"
       stroke="#000000"
       stroke-width="10"
       stroke-linecap="round"
       id="path3-0"
       sodipodi:nodetypes="csc"
       style="display:inline"
       inkscape:label="Chin" />
    <path
       d="m 85.088388,125.9974 c -5,11.5 -23,12 -32,0"
       stroke="#000000"
       stroke-width="10"
       stroke-linecap="round"
       id="path4"
       inkscape:label="Mouth"
       style="display:inline" />
    <circle
       cx="40.783653"
       cy="-97.926811"
       r="7.6751604"
       fill="#000000"
       id="circle4"
       inkscape:label="Left Eye - Dot 4"
       style="display:inline;stroke-width:1.39548"
       transform="scale(1,-1)" />
    <circle
       cx="32.410751"
       cy="-99.322304"
       fill="#000000"
       id="circle5"
       inkscape:label="Left Eye - Dot 3"
       style="display:inline;stroke-width:1.39548"
       r="6.2796764"
       transform="scale(1,-1)" />
    <ellipse
       cx="-37.294941"
       cy="-90.949402"
       rx="8.3729019"
       ry="4.8841925"
       fill="#000000"
       id="ellipse5"
       inkscape:label="Left Eye - Dot 2"
       style="display:inline;stroke-width:1.39548"
       transform="scale(-1)" />
    <circle
       cx="29.619787"
       cy="-93.740356"
       fill="#000000"
       id="circle6"
       inkscape:label="Left Eye - Dot 1"
       style="display:inline;stroke-width:1.39548"
       transform="scale(1,-1)"
       r="3.4887092" />
    <circle
       cx="-97.530136"
       cy="-96.38475"
       r="6.1996045"
       transform="scale(-1)"
       fill="#000000"
       id="circle7"
       inkscape:label="Right Eye - Dot 5"
       style="display:inline;stroke-width:1.23992" />
    <circle
       cx="-105.58961"
       cy="-98.244637"
       r="5.5796442"
       transform="scale(-1)"
       fill="#000000"
       id="circle8"
       inkscape:label="Right Eye -Dot 4"
       style="display:inline;stroke-width:1.23992" />
    <ellipse
       cx="-100.00996"
       cy="-102.58436"
       rx="4.9596839"
       ry="3.7197628"
       transform="scale(-1)"
       fill="#000000"
       id="ellipse8"
       inkscape:label="Right Eye - Dot 3"
       style="display:inline;stroke-width:1.23992" />
    <ellipse
       cx="-101.24991"
       cy="-90.805107"
       rx="7.4395256"
       ry="4.3397231"
       transform="scale(-1)"
       fill="#000000"
       id="ellipse9"
       inkscape:label="Right Eye - Dot 2"
       style="display:inline;stroke-width:1.23992" />
    <circle
       cx="-108.06947"
       cy="-93.28495"
       r="3.0998023"
       transform="scale(-1)"
       fill="#000000"
       id="circle9"
       inkscape:label="Right Eye - Dot 1"
       style="display:inline;stroke-width:1.23992" />
    <path
       d="M 5.0883883,83.997403 C 15.454976,60.519413 46.825629,62.686251 57.940658,79.12358 c 5.217018,8.24385 5.133453,16.810455 0,24.87382 -19.863108,29.90769 -44.25132,9.64313 -52.6152344,0.2271 -0.1426224,-0.16056 -0.2370353,-0.2271 -0.2370353,-0.2271 M 131.08839,83.997403 C 115.87885,62.256372 92.755148,65.606743 84.46378,79.935884 c -6.835426,9.758422 -8.521508,16.318585 -1.083071,27.039966 16.260672,23.43729 42.522691,9.76335 47.233561,-2.54174"
       stroke="#000000"
       stroke-width="10"
       stroke-linecap="round"
       id="path1"
       sodipodi:nodetypes="cccscccsc"
       style="display:inline;stroke-linejoin:round"
       inkscape:label="Glasses - Lenses" />
    <path
       d="m 62.106389,95.288435 c 1.558767,-3.58516 5.887702,-4.826335 9.782475,-3.505046 1.803334,0.611774 3.513591,1.772895 4.812704,3.505046"
       stroke="#000000"
       stroke-width="5.25057"
       stroke-linecap="round"
       id="path4-7"
       style="display:inline;stroke-width:10;stroke-dasharray:none"
       sodipodi:nodetypes="csc"
       inkscape:label="Glasses - bridge" />
    <path
       style="display:inline;fill:none;stroke:#000000;stroke-width:5;stroke-linecap:round;stroke-linejoin:round;stroke-dasharray:none;paint-order:stroke fill markers"
       d="m 30.765427,93.227727 c 0,0 -5.702486,-0.547067 -5.911084,-4.75515"
       id="path9-1-1-2"
       inkscape:label="Left Eyelash - Bottom Part" />
    <path
       style="display:inline;fill:none;stroke:#000000;stroke-width:5.51701;stroke-linecap:round;stroke-linejoin:round;stroke-dasharray:none;paint-order:stroke fill markers"
       d="m 34.284479,89.331539 c 0,0 -6.516438,2.663775 -8.921553,-0.815133"
       id="path9-5-7"
       inkscape:label="Left Eyelash - Top Part" />
    <path
       style="display:inline;fill:none;stroke:#000000;stroke-width:5;stroke-linecap:round;stroke-linejoin:round;stroke-dasharray:none;paint-order:stroke fill markers"
       d="m 108.06618,93.88723 c 0,0 5.71805,-0.348439 6.07286,-4.54672"
       id="path9-1-1-2-1"
       inkscape:label="Left Eyelash - Bottom Part" />
    <path
       style="display:inline;fill:none;stroke:#000000;stroke-width:5.51701;stroke-linecap:round;stroke-linejoin:round;stroke-dasharray:none;paint-order:stroke fill markers"
       d="m 104.68474,89.871027 c 0,0 6.41987,2.888767 8.94451,-0.504399"
       id="path9-5-7-6"
       inkscape:label="Left Eyelash - Top Part" />
    <path
       style="display:inline;fill:none;stroke:#000000;stroke-width:10;stroke-linecap:round;stroke-linejoin:round;stroke-dasharray:none;paint-order:stroke fill markers"
       d="m 93.970481,35.226822 c -0.3678,17.10065 33.375859,23.709051 23.835439,-4.322444 -4.15789,-12.216639 -23.44916,-13.637369 -23.835439,4.322444 z"
       id="path5"
       sodipodi:nodetypes="sss"
       inkscape:label="Bow - Middle Circle" />
    <path
       style="display:inline;fill:none;stroke:#000000;stroke-width:10;stroke-linecap:round;stroke-linejoin:round;stroke-dasharray:none;paint-order:stroke fill markers"
       d="m 116.85677,27.856552 c 0,0 8.28999,-14.217465 21.44551,-0.876566 19.46423,19.738518 1.54529,35.189158 -10.51662,36.132849 -12.47403,0.975919 -12.07749,-13.104724 -12.07749,-13.104724"
       id="path6"
       sodipodi:nodetypes="cssc"
       inkscape:label="Bow - Right Circle" />
    <path
       style="display:inline;fill:none;stroke:#000000;stroke-width:10;stroke-linecap:round;stroke-linejoin:round;stroke-dasharray:none;paint-order:stroke fill markers"
       d="m 94.293151,42.786306 c 0,0 -16.586964,13.51936 -20.941648,-4.703808 C 68.573029,18.085881 80.96649,3.6924247 92.861647,5.9027491 105.16322,8.1885911 101.13585,21.686818 101.13585,21.686818"
       id="path6-3"
       sodipodi:nodetypes="cssc"
       inkscape:label="Bow - Left Circle" />
  </g>
  <g
     inkscape:groupmode="layer"
     id="layer2"
     inkscape:label="Layer 2"
     transform="translate(0,14.065296)">
    <path
       d="m 182,177 c 0,-38.5 -109,-42.567 -109,0 0,64.5 -4,79.5 0,118 4.3988,42.339 109,42.567 109,0 z"
       stroke="#000000"
       stroke-width="10"
       stroke-linejoin="round"
       id="path9" />
    <path
       d="m 155,327.5 21,161 M 100.5,327.5 76,488.5 M 181,165 c -4,7.5 20,79 44,112.5 M 76,165 C 67.5,163.5 47.5,244.5 8,277.5"
       stroke="#000000"
       stroke-width="15"
       stroke-linecap="round"
       stroke-linejoin="round"
       id="path10" />
  </g>
</svg>
