<svg width="535" height="740" viewBox="0 0 535 740" fill="none" xmlns="http://www.w3.org/2000/svg">
<path d="M178 243C178 243 201.5 331.5 178 390C163.639 425.75 168.5 457.5 183.5 488.5C198.5 519.5 230.5 517.5 239.5 507C248.5 496.5 211 478.5 244.5 432C278 385.5 326 351 314 276" stroke="black" stroke-width="10"/>
<path d="M143 478.5C143 478.5 103.5 571 150.5 628.5C154.888 633.869 157 647 143 643.5C141.078 643.02 129.007 639.817 126 640.5C91 640.5 80.5 672 80.5 672L143 734.5H206C206 734.5 252.5 672 261 618.5" stroke="black" stroke-width="10"/>
<path d="M289 412C289 412 211.5 560.5 391.5 663C397.525 666.431 411 685.5 397 682C395.078 681.52 390.507 681.317 387.5 682C352.5 682 361.5 734.5 361.5 734.5H480.5L527 694.5C527 694.5 464.5 620.5 464.5 442" stroke="black" stroke-width="10"/>
<path d="M330 619C282.637 622.239 250 618.5 208.5 586C167 553.5 147.5 506 127 423.5C106.5 341 157 231 153.5 213C150 195 39 213 39 213L7.5 144L77.5 119.5L87 57.4999L143.5 42.4999C143.5 42.4999 138.5 4.99988 167 4.99988C194 4.99988 194 36.4999 194 36.4999C194 36.4999 206.5 36.4999 241 36.9647C275.5 37.4295 336 60.5 389.5 125.5C443 190.5 464.5 375.5 464.5 443" stroke="black" stroke-width="10"/>
</svg>
